<mxfile host="app.diagrams.net" agent="Mozilla/5.0 (Windows NT 10.0; Win64; x64) AppleWebKit/537.36 (KHTML, like Gecko) Chrome/126.0.0.0 Safari/537.36" version="24.7.6">
  <diagram id="C5RBs43oDa-KdzZeNtuy" name="Page-1">
    <mxGraphModel dx="2261" dy="1941" grid="1" gridSize="10" guides="1" tooltips="1" connect="1" arrows="1" fold="1" page="1" pageScale="1" pageWidth="827" pageHeight="1169" math="0" shadow="0">
      <root>
        <mxCell id="WIyWlLk6GJQsqaUBKTNV-0" />
        <mxCell id="WIyWlLk6GJQsqaUBKTNV-1" parent="WIyWlLk6GJQsqaUBKTNV-0" />
        <mxCell id="BICUtr6SKWms27QiwE2e-4" value="MobileReqBase" style="swimlane;fontStyle=0;childLayout=stackLayout;horizontal=1;startSize=26;fillColor=none;horizontalStack=0;resizeParent=1;resizeParentMax=0;resizeLast=0;collapsible=1;marginBottom=0;whiteSpace=wrap;html=1;" vertex="1" parent="WIyWlLk6GJQsqaUBKTNV-1">
          <mxGeometry x="550" y="37" width="170" height="350" as="geometry" />
        </mxCell>
        <mxCell id="BICUtr6SKWms27QiwE2e-5" value="# ver: std::string" style="text;strokeColor=none;fillColor=none;align=left;verticalAlign=top;spacingLeft=4;spacingRight=4;overflow=hidden;rotatable=0;points=[[0,0.5],[1,0.5]];portConstraint=eastwest;whiteSpace=wrap;html=1;" vertex="1" parent="BICUtr6SKWms27QiwE2e-4">
          <mxGeometry y="26" width="170" height="26" as="geometry" />
        </mxCell>
        <mxCell id="BICUtr6SKWms27QiwE2e-6" value="# agent_type: USER_AGENT_TYPE" style="text;strokeColor=none;fillColor=none;align=left;verticalAlign=top;spacingLeft=4;spacingRight=4;overflow=hidden;rotatable=0;points=[[0,0.5],[1,0.5]];portConstraint=eastwest;whiteSpace=wrap;html=1;" vertex="1" parent="BICUtr6SKWms27QiwE2e-4">
          <mxGeometry y="52" width="170" height="38" as="geometry" />
        </mxCell>
        <mxCell id="BICUtr6SKWms27QiwE2e-7" value="# error: ERROR_CODE" style="text;strokeColor=none;fillColor=none;align=left;verticalAlign=top;spacingLeft=4;spacingRight=4;overflow=hidden;rotatable=0;points=[[0,0.5],[1,0.5]];portConstraint=eastwest;whiteSpace=wrap;html=1;" vertex="1" parent="BICUtr6SKWms27QiwE2e-4">
          <mxGeometry y="90" width="170" height="26" as="geometry" />
        </mxCell>
        <mxCell id="BICUtr6SKWms27QiwE2e-12" value="+ get_agent_type(): USER_AGENT_TYPE" style="text;strokeColor=none;fillColor=none;align=left;verticalAlign=top;spacingLeft=4;spacingRight=4;overflow=hidden;rotatable=0;points=[[0,0.5],[1,0.5]];portConstraint=eastwest;whiteSpace=wrap;html=1;" vertex="1" parent="BICUtr6SKWms27QiwE2e-4">
          <mxGeometry y="116" width="170" height="44" as="geometry" />
        </mxCell>
        <mxCell id="BICUtr6SKWms27QiwE2e-13" value="+ get_ver(): std::string" style="text;strokeColor=none;fillColor=none;align=left;verticalAlign=top;spacingLeft=4;spacingRight=4;overflow=hidden;rotatable=0;points=[[0,0.5],[1,0.5]];portConstraint=eastwest;whiteSpace=wrap;html=1;" vertex="1" parent="BICUtr6SKWms27QiwE2e-4">
          <mxGeometry y="160" width="170" height="30" as="geometry" />
        </mxCell>
        <mxCell id="BICUtr6SKWms27QiwE2e-14" value="+ get_error(): ERROR_CODE" style="text;strokeColor=none;fillColor=none;align=left;verticalAlign=top;spacingLeft=4;spacingRight=4;overflow=hidden;rotatable=0;points=[[0,0.5],[1,0.5]];portConstraint=eastwest;whiteSpace=wrap;html=1;" vertex="1" parent="BICUtr6SKWms27QiwE2e-4">
          <mxGeometry y="190" width="170" height="40" as="geometry" />
        </mxCell>
        <mxCell id="BICUtr6SKWms27QiwE2e-15" value="+ get_error_str(): std::string" style="text;strokeColor=none;fillColor=none;align=left;verticalAlign=top;spacingLeft=4;spacingRight=4;overflow=hidden;rotatable=0;points=[[0,0.5],[1,0.5]];portConstraint=eastwest;whiteSpace=wrap;html=1;" vertex="1" parent="BICUtr6SKWms27QiwE2e-4">
          <mxGeometry y="230" width="170" height="40" as="geometry" />
        </mxCell>
        <mxCell id="BICUtr6SKWms27QiwE2e-17" value="+ set_error(ERROR_CODE error): void" style="text;strokeColor=none;fillColor=none;align=left;verticalAlign=top;spacingLeft=4;spacingRight=4;overflow=hidden;rotatable=0;points=[[0,0.5],[1,0.5]];portConstraint=eastwest;whiteSpace=wrap;html=1;" vertex="1" parent="BICUtr6SKWms27QiwE2e-4">
          <mxGeometry y="270" width="170" height="40" as="geometry" />
        </mxCell>
        <mxCell id="BICUtr6SKWms27QiwE2e-16" value="+ set_agent_type(std::string &amp;amp;agent): void" style="text;strokeColor=none;fillColor=none;align=left;verticalAlign=top;spacingLeft=4;spacingRight=4;overflow=hidden;rotatable=0;points=[[0,0.5],[1,0.5]];portConstraint=eastwest;whiteSpace=wrap;html=1;" vertex="1" parent="BICUtr6SKWms27QiwE2e-4">
          <mxGeometry y="310" width="170" height="40" as="geometry" />
        </mxCell>
        <mxCell id="BICUtr6SKWms27QiwE2e-8" value="CommonReq" style="swimlane;fontStyle=1;align=center;verticalAlign=top;childLayout=stackLayout;horizontal=1;startSize=26;horizontalStack=0;resizeParent=1;resizeParentMax=0;resizeLast=0;collapsible=1;marginBottom=0;whiteSpace=wrap;html=1;" vertex="1" parent="WIyWlLk6GJQsqaUBKTNV-1">
          <mxGeometry x="90" y="204" width="160" height="100" as="geometry" />
        </mxCell>
        <mxCell id="BICUtr6SKWms27QiwE2e-18" value="" style="endArrow=block;dashed=1;endFill=0;endSize=12;html=1;rounded=0;entryX=0.003;entryY=0.664;entryDx=0;entryDy=0;entryPerimeter=0;" edge="1" parent="BICUtr6SKWms27QiwE2e-8" target="BICUtr6SKWms27QiwE2e-14">
          <mxGeometry width="160" relative="1" as="geometry">
            <mxPoint x="160" y="50" as="sourcePoint" />
            <mxPoint x="310" y="50" as="targetPoint" />
          </mxGeometry>
        </mxCell>
        <mxCell id="BICUtr6SKWms27QiwE2e-10" value="" style="line;strokeWidth=1;fillColor=none;align=left;verticalAlign=middle;spacingTop=-1;spacingLeft=3;spacingRight=3;rotatable=0;labelPosition=right;points=[];portConstraint=eastwest;strokeColor=inherit;" vertex="1" parent="BICUtr6SKWms27QiwE2e-8">
          <mxGeometry y="26" width="160" height="8" as="geometry" />
        </mxCell>
        <mxCell id="BICUtr6SKWms27QiwE2e-11" value="+ gen_res_json(): std::string" style="text;strokeColor=none;fillColor=none;align=left;verticalAlign=top;spacingLeft=4;spacingRight=4;overflow=hidden;rotatable=0;points=[[0,0.5],[1,0.5]];portConstraint=eastwest;whiteSpace=wrap;html=1;" vertex="1" parent="BICUtr6SKWms27QiwE2e-8">
          <mxGeometry y="34" width="160" height="26" as="geometry" />
        </mxCell>
        <mxCell id="BICUtr6SKWms27QiwE2e-19" value="+ parse_req_json(const std::string &amp;amp;json): bool" style="text;strokeColor=none;fillColor=none;align=left;verticalAlign=top;spacingLeft=4;spacingRight=4;overflow=hidden;rotatable=0;points=[[0,0.5],[1,0.5]];portConstraint=eastwest;whiteSpace=wrap;html=1;" vertex="1" parent="BICUtr6SKWms27QiwE2e-8">
          <mxGeometry y="60" width="160" height="40" as="geometry" />
        </mxCell>
        <mxCell id="BICUtr6SKWms27QiwE2e-20" value="CommonStatus" style="swimlane;fontStyle=1;align=center;verticalAlign=top;childLayout=stackLayout;horizontal=1;startSize=26;horizontalStack=0;resizeParent=1;resizeParentMax=0;resizeLast=0;collapsible=1;marginBottom=0;whiteSpace=wrap;html=1;" vertex="1" parent="WIyWlLk6GJQsqaUBKTNV-1">
          <mxGeometry x="-70" y="683" width="160" height="166" as="geometry" />
        </mxCell>
        <mxCell id="BICUtr6SKWms27QiwE2e-22" value="" style="line;strokeWidth=1;fillColor=none;align=left;verticalAlign=middle;spacingTop=-1;spacingLeft=3;spacingRight=3;rotatable=0;labelPosition=right;points=[];portConstraint=eastwest;strokeColor=inherit;" vertex="1" parent="BICUtr6SKWms27QiwE2e-20">
          <mxGeometry y="26" width="160" height="8" as="geometry" />
        </mxCell>
        <mxCell id="BICUtr6SKWms27QiwE2e-27" value="- status_: uint8_t" style="text;strokeColor=none;fillColor=none;align=left;verticalAlign=top;spacingLeft=4;spacingRight=4;overflow=hidden;rotatable=0;points=[[0,0.5],[1,0.5]];portConstraint=eastwest;whiteSpace=wrap;html=1;" vertex="1" parent="BICUtr6SKWms27QiwE2e-20">
          <mxGeometry y="34" width="160" height="26" as="geometry" />
        </mxCell>
        <mxCell id="BICUtr6SKWms27QiwE2e-23" value="+ gen_res_json(): std::string" style="text;strokeColor=none;fillColor=none;align=left;verticalAlign=top;spacingLeft=4;spacingRight=4;overflow=hidden;rotatable=0;points=[[0,0.5],[1,0.5]];portConstraint=eastwest;whiteSpace=wrap;html=1;" vertex="1" parent="BICUtr6SKWms27QiwE2e-20">
          <mxGeometry y="60" width="160" height="26" as="geometry" />
        </mxCell>
        <mxCell id="BICUtr6SKWms27QiwE2e-24" value="+ set_status(const uint8_t status): void" style="text;strokeColor=none;fillColor=none;align=left;verticalAlign=top;spacingLeft=4;spacingRight=4;overflow=hidden;rotatable=0;points=[[0,0.5],[1,0.5]];portConstraint=eastwest;whiteSpace=wrap;html=1;" vertex="1" parent="BICUtr6SKWms27QiwE2e-20">
          <mxGeometry y="86" width="160" height="40" as="geometry" />
        </mxCell>
        <mxCell id="BICUtr6SKWms27QiwE2e-25" value="+ get_status(): uint8_t" style="text;strokeColor=none;fillColor=none;align=left;verticalAlign=top;spacingLeft=4;spacingRight=4;overflow=hidden;rotatable=0;points=[[0,0.5],[1,0.5]];portConstraint=eastwest;whiteSpace=wrap;html=1;" vertex="1" parent="BICUtr6SKWms27QiwE2e-20">
          <mxGeometry y="126" width="160" height="40" as="geometry" />
        </mxCell>
        <mxCell id="BICUtr6SKWms27QiwE2e-21" value="" style="endArrow=block;dashed=1;endFill=0;endSize=12;html=1;rounded=0;entryX=0.039;entryY=0.986;entryDx=0;entryDy=0;entryPerimeter=0;" edge="1" parent="WIyWlLk6GJQsqaUBKTNV-1" target="BICUtr6SKWms27QiwE2e-19">
          <mxGeometry width="160" relative="1" as="geometry">
            <mxPoint x="10" y="680" as="sourcePoint" />
            <mxPoint x="98" y="310" as="targetPoint" />
          </mxGeometry>
        </mxCell>
        <mxCell id="BICUtr6SKWms27QiwE2e-28" value="SyncTime" style="swimlane;fontStyle=1;align=center;verticalAlign=top;childLayout=stackLayout;horizontal=1;startSize=26;horizontalStack=0;resizeParent=1;resizeParentMax=0;resizeLast=0;collapsible=1;marginBottom=0;whiteSpace=wrap;html=1;" vertex="1" parent="WIyWlLk6GJQsqaUBKTNV-1">
          <mxGeometry x="-240" y="683" width="160" height="186" as="geometry" />
        </mxCell>
        <mxCell id="BICUtr6SKWms27QiwE2e-29" value="" style="line;strokeWidth=1;fillColor=none;align=left;verticalAlign=middle;spacingTop=-1;spacingLeft=3;spacingRight=3;rotatable=0;labelPosition=right;points=[];portConstraint=eastwest;strokeColor=inherit;" vertex="1" parent="BICUtr6SKWms27QiwE2e-28">
          <mxGeometry y="26" width="160" height="8" as="geometry" />
        </mxCell>
        <mxCell id="BICUtr6SKWms27QiwE2e-30" value="- time_: time_t" style="text;strokeColor=none;fillColor=none;align=left;verticalAlign=top;spacingLeft=4;spacingRight=4;overflow=hidden;rotatable=0;points=[[0,0.5],[1,0.5]];portConstraint=eastwest;whiteSpace=wrap;html=1;" vertex="1" parent="BICUtr6SKWms27QiwE2e-28">
          <mxGeometry y="34" width="160" height="26" as="geometry" />
        </mxCell>
        <mxCell id="BICUtr6SKWms27QiwE2e-124" value="- zone_: uint16_t" style="text;strokeColor=none;fillColor=none;align=left;verticalAlign=top;spacingLeft=4;spacingRight=4;overflow=hidden;rotatable=0;points=[[0,0.5],[1,0.5]];portConstraint=eastwest;whiteSpace=wrap;html=1;" vertex="1" parent="BICUtr6SKWms27QiwE2e-28">
          <mxGeometry y="60" width="160" height="26" as="geometry" />
        </mxCell>
        <mxCell id="BICUtr6SKWms27QiwE2e-31" value="+ parse_req_json(const std::string &amp;amp;json): bool" style="text;strokeColor=none;fillColor=none;align=left;verticalAlign=top;spacingLeft=4;spacingRight=4;overflow=hidden;rotatable=0;points=[[0,0.5],[1,0.5]];portConstraint=eastwest;whiteSpace=wrap;html=1;" vertex="1" parent="BICUtr6SKWms27QiwE2e-28">
          <mxGeometry y="86" width="160" height="40" as="geometry" />
        </mxCell>
        <mxCell id="BICUtr6SKWms27QiwE2e-32" value="+ get_time(): std::string" style="text;strokeColor=none;fillColor=none;align=left;verticalAlign=top;spacingLeft=4;spacingRight=4;overflow=hidden;rotatable=0;points=[[0,0.5],[1,0.5]];portConstraint=eastwest;whiteSpace=wrap;html=1;" vertex="1" parent="BICUtr6SKWms27QiwE2e-28">
          <mxGeometry y="126" width="160" height="30" as="geometry" />
        </mxCell>
        <mxCell id="BICUtr6SKWms27QiwE2e-33" value="+ get_zone(): uint8_t" style="text;strokeColor=none;fillColor=none;align=left;verticalAlign=top;spacingLeft=4;spacingRight=4;overflow=hidden;rotatable=0;points=[[0,0.5],[1,0.5]];portConstraint=eastwest;whiteSpace=wrap;html=1;" vertex="1" parent="BICUtr6SKWms27QiwE2e-28">
          <mxGeometry y="156" width="160" height="30" as="geometry" />
        </mxCell>
        <mxCell id="BICUtr6SKWms27QiwE2e-34" value="" style="endArrow=block;dashed=1;endFill=0;endSize=12;html=1;rounded=0;exitX=0.5;exitY=0;exitDx=0;exitDy=0;" edge="1" parent="WIyWlLk6GJQsqaUBKTNV-1" source="BICUtr6SKWms27QiwE2e-28">
          <mxGeometry width="160" relative="1" as="geometry">
            <mxPoint x="-90" y="350" as="sourcePoint" />
            <mxPoint x="90" y="300" as="targetPoint" />
          </mxGeometry>
        </mxCell>
        <mxCell id="BICUtr6SKWms27QiwE2e-35" value="DeviceInfo" style="swimlane;fontStyle=1;align=center;verticalAlign=top;childLayout=stackLayout;horizontal=1;startSize=26;horizontalStack=0;resizeParent=1;resizeParentMax=0;resizeLast=0;collapsible=1;marginBottom=0;whiteSpace=wrap;html=1;" vertex="1" parent="WIyWlLk6GJQsqaUBKTNV-1">
          <mxGeometry x="-340" y="219" width="200" height="70" as="geometry" />
        </mxCell>
        <mxCell id="BICUtr6SKWms27QiwE2e-36" value="" style="line;strokeWidth=1;fillColor=none;align=left;verticalAlign=middle;spacingTop=-1;spacingLeft=3;spacingRight=3;rotatable=0;labelPosition=right;points=[];portConstraint=eastwest;strokeColor=inherit;" vertex="1" parent="BICUtr6SKWms27QiwE2e-35">
          <mxGeometry y="26" width="200" height="8" as="geometry" />
        </mxCell>
        <mxCell id="BICUtr6SKWms27QiwE2e-38" value="+ gen_res_json(DeviceInfoParam&amp;amp; param): std::string" style="text;strokeColor=none;fillColor=none;align=left;verticalAlign=top;spacingLeft=4;spacingRight=4;overflow=hidden;rotatable=0;points=[[0,0.5],[1,0.5]];portConstraint=eastwest;whiteSpace=wrap;html=1;" vertex="1" parent="BICUtr6SKWms27QiwE2e-35">
          <mxGeometry y="34" width="200" height="36" as="geometry" />
        </mxCell>
        <mxCell id="BICUtr6SKWms27QiwE2e-41" value="" style="endArrow=block;dashed=1;endFill=0;endSize=12;html=1;rounded=0;exitX=1;exitY=0.5;exitDx=0;exitDy=0;entryX=-0.016;entryY=0.676;entryDx=0;entryDy=0;entryPerimeter=0;" edge="1" parent="WIyWlLk6GJQsqaUBKTNV-1" source="BICUtr6SKWms27QiwE2e-35" target="BICUtr6SKWms27QiwE2e-11">
          <mxGeometry width="160" relative="1" as="geometry">
            <mxPoint x="-50" y="250" as="sourcePoint" />
            <mxPoint x="110" y="250" as="targetPoint" />
          </mxGeometry>
        </mxCell>
        <mxCell id="BICUtr6SKWms27QiwE2e-43" value="&lt;b&gt;DeviceInfoParam&lt;/b&gt;" style="swimlane;fontStyle=0;childLayout=stackLayout;horizontal=1;startSize=26;fillColor=none;horizontalStack=0;resizeParent=1;resizeParentMax=0;resizeLast=0;collapsible=1;marginBottom=0;whiteSpace=wrap;html=1;" vertex="1" parent="WIyWlLk6GJQsqaUBKTNV-1">
          <mxGeometry x="-310" y="-80" width="170" height="170" as="geometry" />
        </mxCell>
        <mxCell id="BICUtr6SKWms27QiwE2e-44" value="+ sn_: std::string" style="text;strokeColor=none;fillColor=none;align=left;verticalAlign=top;spacingLeft=4;spacingRight=4;overflow=hidden;rotatable=0;points=[[0,0.5],[1,0.5]];portConstraint=eastwest;whiteSpace=wrap;html=1;" vertex="1" parent="BICUtr6SKWms27QiwE2e-43">
          <mxGeometry y="26" width="170" height="26" as="geometry" />
        </mxCell>
        <mxCell id="BICUtr6SKWms27QiwE2e-45" value="+ app_ver_: std::string" style="text;strokeColor=none;fillColor=none;align=left;verticalAlign=top;spacingLeft=4;spacingRight=4;overflow=hidden;rotatable=0;points=[[0,0.5],[1,0.5]];portConstraint=eastwest;whiteSpace=wrap;html=1;" vertex="1" parent="BICUtr6SKWms27QiwE2e-43">
          <mxGeometry y="52" width="170" height="26" as="geometry" />
        </mxCell>
        <mxCell id="BICUtr6SKWms27QiwE2e-47" value="+ os_ver_: std::string" style="text;strokeColor=none;fillColor=none;align=left;verticalAlign=top;spacingLeft=4;spacingRight=4;overflow=hidden;rotatable=0;points=[[0,0.5],[1,0.5]];portConstraint=eastwest;whiteSpace=wrap;html=1;" vertex="1" parent="BICUtr6SKWms27QiwE2e-43">
          <mxGeometry y="78" width="170" height="26" as="geometry" />
        </mxCell>
        <mxCell id="BICUtr6SKWms27QiwE2e-48" value="+ model_: std::string" style="text;strokeColor=none;fillColor=none;align=left;verticalAlign=top;spacingLeft=4;spacingRight=4;overflow=hidden;rotatable=0;points=[[0,0.5],[1,0.5]];portConstraint=eastwest;whiteSpace=wrap;html=1;" vertex="1" parent="BICUtr6SKWms27QiwE2e-43">
          <mxGeometry y="104" width="170" height="26" as="geometry" />
        </mxCell>
        <mxCell id="BICUtr6SKWms27QiwE2e-46" value="+ phone_number_: std::string" style="text;strokeColor=none;fillColor=none;align=left;verticalAlign=top;spacingLeft=4;spacingRight=4;overflow=hidden;rotatable=0;points=[[0,0.5],[1,0.5]];portConstraint=eastwest;whiteSpace=wrap;html=1;" vertex="1" parent="BICUtr6SKWms27QiwE2e-43">
          <mxGeometry y="130" width="170" height="40" as="geometry" />
        </mxCell>
        <mxCell id="BICUtr6SKWms27QiwE2e-50" value="1" style="endArrow=open;html=1;endSize=12;startArrow=diamondThin;startSize=14;startFill=1;edgeStyle=orthogonalEdgeStyle;align=left;verticalAlign=bottom;rounded=0;entryX=0.413;entryY=0.984;entryDx=0;entryDy=0;entryPerimeter=0;" edge="1" parent="WIyWlLk6GJQsqaUBKTNV-1" source="BICUtr6SKWms27QiwE2e-35" target="BICUtr6SKWms27QiwE2e-46">
          <mxGeometry x="-0.5002" y="3" relative="1" as="geometry">
            <mxPoint x="-150.34" y="230" as="sourcePoint" />
            <mxPoint x="-80" y="250" as="targetPoint" />
            <Array as="points" />
            <mxPoint x="-3" y="-3" as="offset" />
          </mxGeometry>
        </mxCell>
        <mxCell id="BICUtr6SKWms27QiwE2e-51" value="OpenStream" style="swimlane;fontStyle=1;align=center;verticalAlign=top;childLayout=stackLayout;horizontal=1;startSize=26;horizontalStack=0;resizeParent=1;resizeParentMax=0;resizeLast=0;collapsible=1;marginBottom=0;whiteSpace=wrap;html=1;" vertex="1" parent="WIyWlLk6GJQsqaUBKTNV-1">
          <mxGeometry x="80" y="-380" width="160" height="550" as="geometry" />
        </mxCell>
        <mxCell id="BICUtr6SKWms27QiwE2e-52" value="" style="line;strokeWidth=1;fillColor=none;align=left;verticalAlign=middle;spacingTop=-1;spacingLeft=3;spacingRight=3;rotatable=0;labelPosition=right;points=[];portConstraint=eastwest;strokeColor=inherit;" vertex="1" parent="BICUtr6SKWms27QiwE2e-51">
          <mxGeometry y="26" width="160" height="8" as="geometry" />
        </mxCell>
        <mxCell id="BICUtr6SKWms27QiwE2e-53" value="- chn_: uint8_t" style="text;strokeColor=none;fillColor=none;align=left;verticalAlign=top;spacingLeft=4;spacingRight=4;overflow=hidden;rotatable=0;points=[[0,0.5],[1,0.5]];portConstraint=eastwest;whiteSpace=wrap;html=1;" vertex="1" parent="BICUtr6SKWms27QiwE2e-51">
          <mxGeometry y="34" width="160" height="26" as="geometry" />
        </mxCell>
        <mxCell id="BICUtr6SKWms27QiwE2e-57" value="- res_: std::string" style="text;strokeColor=none;fillColor=none;align=left;verticalAlign=top;spacingLeft=4;spacingRight=4;overflow=hidden;rotatable=0;points=[[0,0.5],[1,0.5]];portConstraint=eastwest;whiteSpace=wrap;html=1;" vertex="1" parent="BICUtr6SKWms27QiwE2e-51">
          <mxGeometry y="60" width="160" height="26" as="geometry" />
        </mxCell>
        <mxCell id="BICUtr6SKWms27QiwE2e-58" value="- vcodec_: std::string" style="text;strokeColor=none;fillColor=none;align=left;verticalAlign=top;spacingLeft=4;spacingRight=4;overflow=hidden;rotatable=0;points=[[0,0.5],[1,0.5]];portConstraint=eastwest;whiteSpace=wrap;html=1;" vertex="1" parent="BICUtr6SKWms27QiwE2e-51">
          <mxGeometry y="86" width="160" height="26" as="geometry" />
        </mxCell>
        <mxCell id="BICUtr6SKWms27QiwE2e-59" value="- acodec_: std::string" style="text;strokeColor=none;fillColor=none;align=left;verticalAlign=top;spacingLeft=4;spacingRight=4;overflow=hidden;rotatable=0;points=[[0,0.5],[1,0.5]];portConstraint=eastwest;whiteSpace=wrap;html=1;" vertex="1" parent="BICUtr6SKWms27QiwE2e-51">
          <mxGeometry y="112" width="160" height="26" as="geometry" />
        </mxCell>
        <mxCell id="BICUtr6SKWms27QiwE2e-60" value="- afs_: uint16_t" style="text;strokeColor=none;fillColor=none;align=left;verticalAlign=top;spacingLeft=4;spacingRight=4;overflow=hidden;rotatable=0;points=[[0,0.5],[1,0.5]];portConstraint=eastwest;whiteSpace=wrap;html=1;" vertex="1" parent="BICUtr6SKWms27QiwE2e-51">
          <mxGeometry y="138" width="160" height="26" as="geometry" />
        </mxCell>
        <mxCell id="BICUtr6SKWms27QiwE2e-61" value="+ gen_res_json(const std::string &amp;amp;url): std::string" style="text;strokeColor=none;fillColor=none;align=left;verticalAlign=top;spacingLeft=4;spacingRight=4;overflow=hidden;rotatable=0;points=[[0,0.5],[1,0.5]];portConstraint=eastwest;whiteSpace=wrap;html=1;" vertex="1" parent="BICUtr6SKWms27QiwE2e-51">
          <mxGeometry y="164" width="160" height="36" as="geometry" />
        </mxCell>
        <mxCell id="BICUtr6SKWms27QiwE2e-54" value="+ parse_req_json(const std::string &amp;amp;json): bool" style="text;strokeColor=none;fillColor=none;align=left;verticalAlign=top;spacingLeft=4;spacingRight=4;overflow=hidden;rotatable=0;points=[[0,0.5],[1,0.5]];portConstraint=eastwest;whiteSpace=wrap;html=1;" vertex="1" parent="BICUtr6SKWms27QiwE2e-51">
          <mxGeometry y="200" width="160" height="40" as="geometry" />
        </mxCell>
        <mxCell id="BICUtr6SKWms27QiwE2e-55" value="+ set_param(uint8_t chn, std::string &amp;amp;res, std::string &amp;amp;vcodec, std::string &amp;amp;acodec, uint16_t afs): void" style="text;strokeColor=none;fillColor=none;align=left;verticalAlign=top;spacingLeft=4;spacingRight=4;overflow=hidden;rotatable=0;points=[[0,0.5],[1,0.5]];portConstraint=eastwest;whiteSpace=wrap;html=1;" vertex="1" parent="BICUtr6SKWms27QiwE2e-51">
          <mxGeometry y="240" width="160" height="70" as="geometry" />
        </mxCell>
        <mxCell id="BICUtr6SKWms27QiwE2e-56" value="+ get_param(uint8_t &amp;amp;chn, std::string &amp;amp;res, std::string &amp;amp;vcodec, std::string &amp;amp;acodec, uint16_t &amp;amp;afs): void" style="text;strokeColor=none;fillColor=none;align=left;verticalAlign=top;spacingLeft=4;spacingRight=4;overflow=hidden;rotatable=0;points=[[0,0.5],[1,0.5]];portConstraint=eastwest;whiteSpace=wrap;html=1;" vertex="1" parent="BICUtr6SKWms27QiwE2e-51">
          <mxGeometry y="310" width="160" height="90" as="geometry" />
        </mxCell>
        <mxCell id="BICUtr6SKWms27QiwE2e-64" value="+ get_chn(): uint8_t" style="text;strokeColor=none;fillColor=none;align=left;verticalAlign=top;spacingLeft=4;spacingRight=4;overflow=hidden;rotatable=0;points=[[0,0.5],[1,0.5]];portConstraint=eastwest;whiteSpace=wrap;html=1;" vertex="1" parent="BICUtr6SKWms27QiwE2e-51">
          <mxGeometry y="400" width="160" height="30" as="geometry" />
        </mxCell>
        <mxCell id="BICUtr6SKWms27QiwE2e-65" value="+ get_res(): std::string" style="text;strokeColor=none;fillColor=none;align=left;verticalAlign=top;spacingLeft=4;spacingRight=4;overflow=hidden;rotatable=0;points=[[0,0.5],[1,0.5]];portConstraint=eastwest;whiteSpace=wrap;html=1;" vertex="1" parent="BICUtr6SKWms27QiwE2e-51">
          <mxGeometry y="430" width="160" height="30" as="geometry" />
        </mxCell>
        <mxCell id="BICUtr6SKWms27QiwE2e-66" value="+ get_vcodec(): std::string" style="text;strokeColor=none;fillColor=none;align=left;verticalAlign=top;spacingLeft=4;spacingRight=4;overflow=hidden;rotatable=0;points=[[0,0.5],[1,0.5]];portConstraint=eastwest;whiteSpace=wrap;html=1;" vertex="1" parent="BICUtr6SKWms27QiwE2e-51">
          <mxGeometry y="460" width="160" height="30" as="geometry" />
        </mxCell>
        <mxCell id="BICUtr6SKWms27QiwE2e-67" value="+ get_acodec(): std::string" style="text;strokeColor=none;fillColor=none;align=left;verticalAlign=top;spacingLeft=4;spacingRight=4;overflow=hidden;rotatable=0;points=[[0,0.5],[1,0.5]];portConstraint=eastwest;whiteSpace=wrap;html=1;" vertex="1" parent="BICUtr6SKWms27QiwE2e-51">
          <mxGeometry y="490" width="160" height="30" as="geometry" />
        </mxCell>
        <mxCell id="BICUtr6SKWms27QiwE2e-63" value="+ get_afs(): uint16_t" style="text;strokeColor=none;fillColor=none;align=left;verticalAlign=top;spacingLeft=4;spacingRight=4;overflow=hidden;rotatable=0;points=[[0,0.5],[1,0.5]];portConstraint=eastwest;whiteSpace=wrap;html=1;" vertex="1" parent="BICUtr6SKWms27QiwE2e-51">
          <mxGeometry y="520" width="160" height="30" as="geometry" />
        </mxCell>
        <mxCell id="BICUtr6SKWms27QiwE2e-68" value="" style="endArrow=block;dashed=1;endFill=0;endSize=12;html=1;rounded=0;entryX=0.419;entryY=0.04;entryDx=0;entryDy=0;entryPerimeter=0;exitX=0.486;exitY=1.07;exitDx=0;exitDy=0;exitPerimeter=0;" edge="1" parent="WIyWlLk6GJQsqaUBKTNV-1" source="BICUtr6SKWms27QiwE2e-63" target="BICUtr6SKWms27QiwE2e-8">
          <mxGeometry width="160" relative="1" as="geometry">
            <mxPoint x="280" y="189" as="sourcePoint" />
            <mxPoint x="281" y="110" as="targetPoint" />
          </mxGeometry>
        </mxCell>
        <mxCell id="BICUtr6SKWms27QiwE2e-69" value="CloseStream" style="swimlane;fontStyle=1;align=center;verticalAlign=top;childLayout=stackLayout;horizontal=1;startSize=26;horizontalStack=0;resizeParent=1;resizeParentMax=0;resizeLast=0;collapsible=1;marginBottom=0;whiteSpace=wrap;html=1;" vertex="1" parent="WIyWlLk6GJQsqaUBKTNV-1">
          <mxGeometry x="-110" y="-70" width="160" height="160" as="geometry" />
        </mxCell>
        <mxCell id="BICUtr6SKWms27QiwE2e-70" value="" style="line;strokeWidth=1;fillColor=none;align=left;verticalAlign=middle;spacingTop=-1;spacingLeft=3;spacingRight=3;rotatable=0;labelPosition=right;points=[];portConstraint=eastwest;strokeColor=inherit;" vertex="1" parent="BICUtr6SKWms27QiwE2e-69">
          <mxGeometry y="26" width="160" height="8" as="geometry" />
        </mxCell>
        <mxCell id="BICUtr6SKWms27QiwE2e-71" value="- chn_: uint8_t" style="text;strokeColor=none;fillColor=none;align=left;verticalAlign=top;spacingLeft=4;spacingRight=4;overflow=hidden;rotatable=0;points=[[0,0.5],[1,0.5]];portConstraint=eastwest;whiteSpace=wrap;html=1;" vertex="1" parent="BICUtr6SKWms27QiwE2e-69">
          <mxGeometry y="34" width="160" height="26" as="geometry" />
        </mxCell>
        <mxCell id="BICUtr6SKWms27QiwE2e-72" value="+ parse_req_json(const std::string &amp;amp;json): bool" style="text;strokeColor=none;fillColor=none;align=left;verticalAlign=top;spacingLeft=4;spacingRight=4;overflow=hidden;rotatable=0;points=[[0,0.5],[1,0.5]];portConstraint=eastwest;whiteSpace=wrap;html=1;" vertex="1" parent="BICUtr6SKWms27QiwE2e-69">
          <mxGeometry y="60" width="160" height="40" as="geometry" />
        </mxCell>
        <mxCell id="BICUtr6SKWms27QiwE2e-73" value="+ get_chn(): uint8_t" style="text;strokeColor=none;fillColor=none;align=left;verticalAlign=top;spacingLeft=4;spacingRight=4;overflow=hidden;rotatable=0;points=[[0,0.5],[1,0.5]];portConstraint=eastwest;whiteSpace=wrap;html=1;" vertex="1" parent="BICUtr6SKWms27QiwE2e-69">
          <mxGeometry y="100" width="160" height="30" as="geometry" />
        </mxCell>
        <mxCell id="BICUtr6SKWms27QiwE2e-74" value="+ set_chn(uint8_t): void" style="text;strokeColor=none;fillColor=none;align=left;verticalAlign=top;spacingLeft=4;spacingRight=4;overflow=hidden;rotatable=0;points=[[0,0.5],[1,0.5]];portConstraint=eastwest;whiteSpace=wrap;html=1;" vertex="1" parent="BICUtr6SKWms27QiwE2e-69">
          <mxGeometry y="130" width="160" height="30" as="geometry" />
        </mxCell>
        <mxCell id="BICUtr6SKWms27QiwE2e-75" value="" style="endArrow=block;dashed=1;endFill=0;endSize=12;html=1;rounded=0;exitX=0.441;exitY=1.024;exitDx=0;exitDy=0;entryX=-0.012;entryY=0.191;entryDx=0;entryDy=0;entryPerimeter=0;exitPerimeter=0;" edge="1" parent="WIyWlLk6GJQsqaUBKTNV-1" source="BICUtr6SKWms27QiwE2e-74" target="BICUtr6SKWms27QiwE2e-8">
          <mxGeometry width="160" relative="1" as="geometry">
            <mxPoint x="-105" y="224" as="sourcePoint" />
            <mxPoint x="25" y="105" as="targetPoint" />
          </mxGeometry>
        </mxCell>
        <mxCell id="BICUtr6SKWms27QiwE2e-76" value="StreamInfo" style="swimlane;fontStyle=1;align=center;verticalAlign=top;childLayout=stackLayout;horizontal=1;startSize=26;horizontalStack=0;resizeParent=1;resizeParentMax=0;resizeLast=0;collapsible=1;marginBottom=0;whiteSpace=wrap;html=1;" vertex="1" parent="WIyWlLk6GJQsqaUBKTNV-1">
          <mxGeometry x="100" y="683" width="150" height="190" as="geometry" />
        </mxCell>
        <mxCell id="BICUtr6SKWms27QiwE2e-77" value="" style="line;strokeWidth=1;fillColor=none;align=left;verticalAlign=middle;spacingTop=-1;spacingLeft=3;spacingRight=3;rotatable=0;labelPosition=right;points=[];portConstraint=eastwest;strokeColor=inherit;" vertex="1" parent="BICUtr6SKWms27QiwE2e-76">
          <mxGeometry y="26" width="150" height="8" as="geometry" />
        </mxCell>
        <mxCell id="BICUtr6SKWms27QiwE2e-79" value="+ gen_res_json(const uint8_t total, const std::vector&lt;div&gt;&amp;lt;MediaCommon::MediaJson&amp;gt; &amp;amp;streams): std::string&lt;/div&gt;" style="text;strokeColor=none;fillColor=none;align=left;verticalAlign=top;spacingLeft=4;spacingRight=4;overflow=hidden;rotatable=0;points=[[0,0.5],[1,0.5]];portConstraint=eastwest;whiteSpace=wrap;html=1;" vertex="1" parent="BICUtr6SKWms27QiwE2e-76">
          <mxGeometry y="34" width="150" height="76" as="geometry" />
        </mxCell>
        <mxCell id="BICUtr6SKWms27QiwE2e-80" value="+ to_json(MediaCommon::MediaJson &amp;amp;json, MediaCommon::Stream &amp;amp;stream): bool" style="text;strokeColor=none;fillColor=none;align=left;verticalAlign=top;spacingLeft=4;spacingRight=4;overflow=hidden;rotatable=0;points=[[0,0.5],[1,0.5]];portConstraint=eastwest;whiteSpace=wrap;html=1;" vertex="1" parent="BICUtr6SKWms27QiwE2e-76">
          <mxGeometry y="110" width="150" height="80" as="geometry" />
        </mxCell>
        <mxCell id="BICUtr6SKWms27QiwE2e-82" value="" style="endArrow=block;dashed=1;endFill=0;endSize=12;html=1;rounded=0;exitX=0.5;exitY=0;exitDx=0;exitDy=0;entryX=0.111;entryY=1.05;entryDx=0;entryDy=0;entryPerimeter=0;" edge="1" parent="WIyWlLk6GJQsqaUBKTNV-1" source="BICUtr6SKWms27QiwE2e-76" target="BICUtr6SKWms27QiwE2e-19">
          <mxGeometry width="160" relative="1" as="geometry">
            <mxPoint x="210" y="340" as="sourcePoint" />
            <mxPoint x="225" y="310" as="targetPoint" />
          </mxGeometry>
        </mxCell>
        <mxCell id="BICUtr6SKWms27QiwE2e-83" value="StorageUrl" style="swimlane;fontStyle=1;align=center;verticalAlign=top;childLayout=stackLayout;horizontal=1;startSize=26;horizontalStack=0;resizeParent=1;resizeParentMax=0;resizeLast=0;collapsible=1;marginBottom=0;whiteSpace=wrap;html=1;" vertex="1" parent="WIyWlLk6GJQsqaUBKTNV-1">
          <mxGeometry x="260" y="683" width="160" height="90" as="geometry" />
        </mxCell>
        <mxCell id="BICUtr6SKWms27QiwE2e-84" value="" style="line;strokeWidth=1;fillColor=none;align=left;verticalAlign=middle;spacingTop=-1;spacingLeft=3;spacingRight=3;rotatable=0;labelPosition=right;points=[];portConstraint=eastwest;strokeColor=inherit;" vertex="1" parent="BICUtr6SKWms27QiwE2e-83">
          <mxGeometry y="26" width="160" height="8" as="geometry" />
        </mxCell>
        <mxCell id="BICUtr6SKWms27QiwE2e-85" value="+ gen_res_json(const std::string &amp;amp;method, const std::string &amp;amp;url): std::string" style="text;strokeColor=none;fillColor=none;align=left;verticalAlign=top;spacingLeft=4;spacingRight=4;overflow=hidden;rotatable=0;points=[[0,0.5],[1,0.5]];portConstraint=eastwest;whiteSpace=wrap;html=1;" vertex="1" parent="BICUtr6SKWms27QiwE2e-83">
          <mxGeometry y="34" width="160" height="56" as="geometry" />
        </mxCell>
        <mxCell id="BICUtr6SKWms27QiwE2e-86" value="" style="endArrow=block;dashed=1;endFill=0;endSize=12;html=1;rounded=0;exitX=0.196;exitY=-0.016;exitDx=0;exitDy=0;exitPerimeter=0;entryX=0.228;entryY=0.986;entryDx=0;entryDy=0;entryPerimeter=0;" edge="1" parent="WIyWlLk6GJQsqaUBKTNV-1" source="BICUtr6SKWms27QiwE2e-83" target="BICUtr6SKWms27QiwE2e-19">
          <mxGeometry width="160" relative="1" as="geometry">
            <mxPoint x="370" y="500" as="sourcePoint" />
            <mxPoint x="170" y="306" as="targetPoint" />
          </mxGeometry>
        </mxCell>
        <mxCell id="BICUtr6SKWms27QiwE2e-87" value="&lt;b&gt;StorageInfoParam&lt;/b&gt;" style="swimlane;fontStyle=0;childLayout=stackLayout;horizontal=1;startSize=26;fillColor=none;horizontalStack=0;resizeParent=1;resizeParentMax=0;resizeLast=0;collapsible=1;marginBottom=0;whiteSpace=wrap;html=1;" vertex="1" parent="WIyWlLk6GJQsqaUBKTNV-1">
          <mxGeometry x="300" y="-70" width="170" height="130" as="geometry" />
        </mxCell>
        <mxCell id="BICUtr6SKWms27QiwE2e-88" value="+ total_: std::string" style="text;strokeColor=none;fillColor=none;align=left;verticalAlign=top;spacingLeft=4;spacingRight=4;overflow=hidden;rotatable=0;points=[[0,0.5],[1,0.5]];portConstraint=eastwest;whiteSpace=wrap;html=1;" vertex="1" parent="BICUtr6SKWms27QiwE2e-87">
          <mxGeometry y="26" width="170" height="26" as="geometry" />
        </mxCell>
        <mxCell id="BICUtr6SKWms27QiwE2e-89" value="+ used_: std::string" style="text;strokeColor=none;fillColor=none;align=left;verticalAlign=top;spacingLeft=4;spacingRight=4;overflow=hidden;rotatable=0;points=[[0,0.5],[1,0.5]];portConstraint=eastwest;whiteSpace=wrap;html=1;" vertex="1" parent="BICUtr6SKWms27QiwE2e-87">
          <mxGeometry y="52" width="170" height="26" as="geometry" />
        </mxCell>
        <mxCell id="BICUtr6SKWms27QiwE2e-90" value="+ videos_: uint16_t" style="text;strokeColor=none;fillColor=none;align=left;verticalAlign=top;spacingLeft=4;spacingRight=4;overflow=hidden;rotatable=0;points=[[0,0.5],[1,0.5]];portConstraint=eastwest;whiteSpace=wrap;html=1;" vertex="1" parent="BICUtr6SKWms27QiwE2e-87">
          <mxGeometry y="78" width="170" height="26" as="geometry" />
        </mxCell>
        <mxCell id="BICUtr6SKWms27QiwE2e-91" value="+ photos_: uint16_t" style="text;strokeColor=none;fillColor=none;align=left;verticalAlign=top;spacingLeft=4;spacingRight=4;overflow=hidden;rotatable=0;points=[[0,0.5],[1,0.5]];portConstraint=eastwest;whiteSpace=wrap;html=1;" vertex="1" parent="BICUtr6SKWms27QiwE2e-87">
          <mxGeometry y="104" width="170" height="26" as="geometry" />
        </mxCell>
        <mxCell id="BICUtr6SKWms27QiwE2e-93" value="DeviceInfo" style="swimlane;fontStyle=1;align=center;verticalAlign=top;childLayout=stackLayout;horizontal=1;startSize=26;horizontalStack=0;resizeParent=1;resizeParentMax=0;resizeLast=0;collapsible=1;marginBottom=0;whiteSpace=wrap;html=1;" vertex="1" parent="WIyWlLk6GJQsqaUBKTNV-1">
          <mxGeometry x="280" y="124" width="200" height="80" as="geometry" />
        </mxCell>
        <mxCell id="BICUtr6SKWms27QiwE2e-94" value="" style="line;strokeWidth=1;fillColor=none;align=left;verticalAlign=middle;spacingTop=-1;spacingLeft=3;spacingRight=3;rotatable=0;labelPosition=right;points=[];portConstraint=eastwest;strokeColor=inherit;" vertex="1" parent="BICUtr6SKWms27QiwE2e-93">
          <mxGeometry y="26" width="200" height="8" as="geometry" />
        </mxCell>
        <mxCell id="BICUtr6SKWms27QiwE2e-95" value="+ gen_res_json(StorageInfoParam &amp;amp; param): std::string" style="text;strokeColor=none;fillColor=none;align=left;verticalAlign=top;spacingLeft=4;spacingRight=4;overflow=hidden;rotatable=0;points=[[0,0.5],[1,0.5]];portConstraint=eastwest;whiteSpace=wrap;html=1;" vertex="1" parent="BICUtr6SKWms27QiwE2e-93">
          <mxGeometry y="34" width="200" height="46" as="geometry" />
        </mxCell>
        <mxCell id="BICUtr6SKWms27QiwE2e-96" value="1" style="endArrow=open;html=1;endSize=12;startArrow=diamondThin;startSize=14;startFill=1;edgeStyle=orthogonalEdgeStyle;align=left;verticalAlign=bottom;rounded=0;entryX=0.413;entryY=0.984;entryDx=0;entryDy=0;entryPerimeter=0;" edge="1" parent="WIyWlLk6GJQsqaUBKTNV-1">
          <mxGeometry x="-0.283" y="-2" relative="1" as="geometry">
            <mxPoint x="380" y="124" as="sourcePoint" />
            <mxPoint x="380" y="60" as="targetPoint" />
            <Array as="points" />
            <mxPoint as="offset" />
          </mxGeometry>
        </mxCell>
        <mxCell id="BICUtr6SKWms27QiwE2e-98" value="" style="endArrow=block;dashed=1;endFill=0;endSize=12;html=1;rounded=0;exitX=-0.009;exitY=0.307;exitDx=0;exitDy=0;exitPerimeter=0;entryX=0.851;entryY=0.024;entryDx=0;entryDy=0;entryPerimeter=0;" edge="1" parent="WIyWlLk6GJQsqaUBKTNV-1" source="BICUtr6SKWms27QiwE2e-95" target="BICUtr6SKWms27QiwE2e-8">
          <mxGeometry width="160" relative="1" as="geometry">
            <mxPoint x="340" y="220" as="sourcePoint" />
            <mxPoint x="500" y="220" as="targetPoint" />
          </mxGeometry>
        </mxCell>
        <mxCell id="BICUtr6SKWms27QiwE2e-99" value="RecordLoopTime" style="swimlane;fontStyle=1;align=center;verticalAlign=top;childLayout=stackLayout;horizontal=1;startSize=26;horizontalStack=0;resizeParent=1;resizeParentMax=0;resizeLast=0;collapsible=1;marginBottom=0;whiteSpace=wrap;html=1;" vertex="1" parent="WIyWlLk6GJQsqaUBKTNV-1">
          <mxGeometry x="-410" y="683" width="160" height="170" as="geometry" />
        </mxCell>
        <mxCell id="BICUtr6SKWms27QiwE2e-100" value="" style="line;strokeWidth=1;fillColor=none;align=left;verticalAlign=middle;spacingTop=-1;spacingLeft=3;spacingRight=3;rotatable=0;labelPosition=right;points=[];portConstraint=eastwest;strokeColor=inherit;" vertex="1" parent="BICUtr6SKWms27QiwE2e-99">
          <mxGeometry y="26" width="160" height="8" as="geometry" />
        </mxCell>
        <mxCell id="BICUtr6SKWms27QiwE2e-101" value="- minutes_: uint8_t" style="text;strokeColor=none;fillColor=none;align=left;verticalAlign=top;spacingLeft=4;spacingRight=4;overflow=hidden;rotatable=0;points=[[0,0.5],[1,0.5]];portConstraint=eastwest;whiteSpace=wrap;html=1;" vertex="1" parent="BICUtr6SKWms27QiwE2e-99">
          <mxGeometry y="34" width="160" height="26" as="geometry" />
        </mxCell>
        <mxCell id="BICUtr6SKWms27QiwE2e-102" value="+ parse_req_json(const std::string &amp;amp;json): bool" style="text;strokeColor=none;fillColor=none;align=left;verticalAlign=top;spacingLeft=4;spacingRight=4;overflow=hidden;rotatable=0;points=[[0,0.5],[1,0.5]];portConstraint=eastwest;whiteSpace=wrap;html=1;" vertex="1" parent="BICUtr6SKWms27QiwE2e-99">
          <mxGeometry y="60" width="160" height="40" as="geometry" />
        </mxCell>
        <mxCell id="BICUtr6SKWms27QiwE2e-103" value="+ set_minutes(const uint8_t minutes): void" style="text;strokeColor=none;fillColor=none;align=left;verticalAlign=top;spacingLeft=4;spacingRight=4;overflow=hidden;rotatable=0;points=[[0,0.5],[1,0.5]];portConstraint=eastwest;whiteSpace=wrap;html=1;" vertex="1" parent="BICUtr6SKWms27QiwE2e-99">
          <mxGeometry y="100" width="160" height="40" as="geometry" />
        </mxCell>
        <mxCell id="BICUtr6SKWms27QiwE2e-104" value="+ set_minutes(): uint8_t" style="text;strokeColor=none;fillColor=none;align=left;verticalAlign=top;spacingLeft=4;spacingRight=4;overflow=hidden;rotatable=0;points=[[0,0.5],[1,0.5]];portConstraint=eastwest;whiteSpace=wrap;html=1;" vertex="1" parent="BICUtr6SKWms27QiwE2e-99">
          <mxGeometry y="140" width="160" height="30" as="geometry" />
        </mxCell>
        <mxCell id="BICUtr6SKWms27QiwE2e-105" value="" style="endArrow=block;dashed=1;endFill=0;endSize=12;html=1;rounded=0;exitX=0.561;exitY=-0.016;exitDx=0;exitDy=0;exitPerimeter=0;entryX=0;entryY=0.5;entryDx=0;entryDy=0;" edge="1" parent="WIyWlLk6GJQsqaUBKTNV-1" source="BICUtr6SKWms27QiwE2e-99" target="BICUtr6SKWms27QiwE2e-19">
          <mxGeometry width="160" relative="1" as="geometry">
            <mxPoint x="480" y="280" as="sourcePoint" />
            <mxPoint x="20" y="290" as="targetPoint" />
          </mxGeometry>
        </mxCell>
        <mxCell id="BICUtr6SKWms27QiwE2e-106" value="RecordResolution" style="swimlane;fontStyle=1;align=center;verticalAlign=top;childLayout=stackLayout;horizontal=1;startSize=26;horizontalStack=0;resizeParent=1;resizeParentMax=0;resizeLast=0;collapsible=1;marginBottom=0;whiteSpace=wrap;html=1;" vertex="1" parent="WIyWlLk6GJQsqaUBKTNV-1">
          <mxGeometry x="-580" y="680" width="160" height="302" as="geometry" />
        </mxCell>
        <mxCell id="BICUtr6SKWms27QiwE2e-107" value="" style="line;strokeWidth=1;fillColor=none;align=left;verticalAlign=middle;spacingTop=-1;spacingLeft=3;spacingRight=3;rotatable=0;labelPosition=right;points=[];portConstraint=eastwest;strokeColor=inherit;" vertex="1" parent="BICUtr6SKWms27QiwE2e-106">
          <mxGeometry y="26" width="160" height="8" as="geometry" />
        </mxCell>
        <mxCell id="BICUtr6SKWms27QiwE2e-108" value="- width_: uint16_t" style="text;strokeColor=none;fillColor=none;align=left;verticalAlign=top;spacingLeft=4;spacingRight=4;overflow=hidden;rotatable=0;points=[[0,0.5],[1,0.5]];portConstraint=eastwest;whiteSpace=wrap;html=1;" vertex="1" parent="BICUtr6SKWms27QiwE2e-106">
          <mxGeometry y="34" width="160" height="26" as="geometry" />
        </mxCell>
        <mxCell id="BICUtr6SKWms27QiwE2e-112" value="- height_: uint16_t" style="text;strokeColor=none;fillColor=none;align=left;verticalAlign=top;spacingLeft=4;spacingRight=4;overflow=hidden;rotatable=0;points=[[0,0.5],[1,0.5]];portConstraint=eastwest;whiteSpace=wrap;html=1;" vertex="1" parent="BICUtr6SKWms27QiwE2e-106">
          <mxGeometry y="60" width="160" height="26" as="geometry" />
        </mxCell>
        <mxCell id="BICUtr6SKWms27QiwE2e-109" value="+ parse_req_json(const std::string &amp;amp;json): bool" style="text;strokeColor=none;fillColor=none;align=left;verticalAlign=top;spacingLeft=4;spacingRight=4;overflow=hidden;rotatable=0;points=[[0,0.5],[1,0.5]];portConstraint=eastwest;whiteSpace=wrap;html=1;" vertex="1" parent="BICUtr6SKWms27QiwE2e-106">
          <mxGeometry y="86" width="160" height="40" as="geometry" />
        </mxCell>
        <mxCell id="BICUtr6SKWms27QiwE2e-110" value="+ set_param(const std::string &amp;amp;str_res): void" style="text;strokeColor=none;fillColor=none;align=left;verticalAlign=top;spacingLeft=4;spacingRight=4;overflow=hidden;rotatable=0;points=[[0,0.5],[1,0.5]];portConstraint=eastwest;whiteSpace=wrap;html=1;" vertex="1" parent="BICUtr6SKWms27QiwE2e-106">
          <mxGeometry y="126" width="160" height="40" as="geometry" />
        </mxCell>
        <mxCell id="BICUtr6SKWms27QiwE2e-111" value="+ set_width(const uint16_t width): void" style="text;strokeColor=none;fillColor=none;align=left;verticalAlign=top;spacingLeft=4;spacingRight=4;overflow=hidden;rotatable=0;points=[[0,0.5],[1,0.5]];portConstraint=eastwest;whiteSpace=wrap;html=1;" vertex="1" parent="BICUtr6SKWms27QiwE2e-106">
          <mxGeometry y="166" width="160" height="34" as="geometry" />
        </mxCell>
        <mxCell id="BICUtr6SKWms27QiwE2e-113" value="+ set_height(const uint16_t height): void" style="text;strokeColor=none;fillColor=none;align=left;verticalAlign=top;spacingLeft=4;spacingRight=4;overflow=hidden;rotatable=0;points=[[0,0.5],[1,0.5]];portConstraint=eastwest;whiteSpace=wrap;html=1;" vertex="1" parent="BICUtr6SKWms27QiwE2e-106">
          <mxGeometry y="200" width="160" height="34" as="geometry" />
        </mxCell>
        <mxCell id="BICUtr6SKWms27QiwE2e-114" value="+ get_height(): uint16_t" style="text;strokeColor=none;fillColor=none;align=left;verticalAlign=top;spacingLeft=4;spacingRight=4;overflow=hidden;rotatable=0;points=[[0,0.5],[1,0.5]];portConstraint=eastwest;whiteSpace=wrap;html=1;" vertex="1" parent="BICUtr6SKWms27QiwE2e-106">
          <mxGeometry y="234" width="160" height="34" as="geometry" />
        </mxCell>
        <mxCell id="BICUtr6SKWms27QiwE2e-115" value="+ get_width(): uint16_t" style="text;strokeColor=none;fillColor=none;align=left;verticalAlign=top;spacingLeft=4;spacingRight=4;overflow=hidden;rotatable=0;points=[[0,0.5],[1,0.5]];portConstraint=eastwest;whiteSpace=wrap;html=1;" vertex="1" parent="BICUtr6SKWms27QiwE2e-106">
          <mxGeometry y="268" width="160" height="34" as="geometry" />
        </mxCell>
        <mxCell id="BICUtr6SKWms27QiwE2e-116" value="" style="endArrow=block;dashed=1;endFill=0;endSize=12;html=1;rounded=0;entryX=0.002;entryY=1.012;entryDx=0;entryDy=0;entryPerimeter=0;exitX=0.51;exitY=-0.011;exitDx=0;exitDy=0;exitPerimeter=0;" edge="1" parent="WIyWlLk6GJQsqaUBKTNV-1" source="BICUtr6SKWms27QiwE2e-106" target="BICUtr6SKWms27QiwE2e-11">
          <mxGeometry width="160" relative="1" as="geometry">
            <mxPoint x="-360" y="350" as="sourcePoint" />
            <mxPoint x="-200" y="350" as="targetPoint" />
          </mxGeometry>
        </mxCell>
        <mxCell id="BICUtr6SKWms27QiwE2e-117" value="PhotoPath" style="swimlane;fontStyle=1;align=center;verticalAlign=top;childLayout=stackLayout;horizontal=1;startSize=26;horizontalStack=0;resizeParent=1;resizeParentMax=0;resizeLast=0;collapsible=1;marginBottom=0;whiteSpace=wrap;html=1;" vertex="1" parent="WIyWlLk6GJQsqaUBKTNV-1">
          <mxGeometry x="430" y="683" width="160" height="160" as="geometry" />
        </mxCell>
        <mxCell id="BICUtr6SKWms27QiwE2e-118" value="" style="line;strokeWidth=1;fillColor=none;align=left;verticalAlign=middle;spacingTop=-1;spacingLeft=3;spacingRight=3;rotatable=0;labelPosition=right;points=[];portConstraint=eastwest;strokeColor=inherit;" vertex="1" parent="BICUtr6SKWms27QiwE2e-117">
          <mxGeometry y="26" width="160" height="8" as="geometry" />
        </mxCell>
        <mxCell id="BICUtr6SKWms27QiwE2e-119" value="- path_: std::string" style="text;strokeColor=none;fillColor=none;align=left;verticalAlign=top;spacingLeft=4;spacingRight=4;overflow=hidden;rotatable=0;points=[[0,0.5],[1,0.5]];portConstraint=eastwest;whiteSpace=wrap;html=1;" vertex="1" parent="BICUtr6SKWms27QiwE2e-117">
          <mxGeometry y="34" width="160" height="26" as="geometry" />
        </mxCell>
        <mxCell id="BICUtr6SKWms27QiwE2e-120" value="+ gen_res_json(): std::string" style="text;strokeColor=none;fillColor=none;align=left;verticalAlign=top;spacingLeft=4;spacingRight=4;overflow=hidden;rotatable=0;points=[[0,0.5],[1,0.5]];portConstraint=eastwest;whiteSpace=wrap;html=1;" vertex="1" parent="BICUtr6SKWms27QiwE2e-117">
          <mxGeometry y="60" width="160" height="30" as="geometry" />
        </mxCell>
        <mxCell id="BICUtr6SKWms27QiwE2e-121" value="+ set_path(const std::string &amp;amp;path): void" style="text;strokeColor=none;fillColor=none;align=left;verticalAlign=top;spacingLeft=4;spacingRight=4;overflow=hidden;rotatable=0;points=[[0,0.5],[1,0.5]];portConstraint=eastwest;whiteSpace=wrap;html=1;" vertex="1" parent="BICUtr6SKWms27QiwE2e-117">
          <mxGeometry y="90" width="160" height="40" as="geometry" />
        </mxCell>
        <mxCell id="BICUtr6SKWms27QiwE2e-122" value="+ get_path(): std::string" style="text;strokeColor=none;fillColor=none;align=left;verticalAlign=top;spacingLeft=4;spacingRight=4;overflow=hidden;rotatable=0;points=[[0,0.5],[1,0.5]];portConstraint=eastwest;whiteSpace=wrap;html=1;" vertex="1" parent="BICUtr6SKWms27QiwE2e-117">
          <mxGeometry y="130" width="160" height="30" as="geometry" />
        </mxCell>
        <mxCell id="BICUtr6SKWms27QiwE2e-123" value="" style="endArrow=block;dashed=1;endFill=0;endSize=12;html=1;rounded=0;entryX=0.377;entryY=1.06;entryDx=0;entryDy=0;entryPerimeter=0;exitX=0.128;exitY=0.004;exitDx=0;exitDy=0;exitPerimeter=0;" edge="1" parent="WIyWlLk6GJQsqaUBKTNV-1" source="BICUtr6SKWms27QiwE2e-117" target="BICUtr6SKWms27QiwE2e-19">
          <mxGeometry width="160" relative="1" as="geometry">
            <mxPoint x="430" y="369.44" as="sourcePoint" />
            <mxPoint x="430.7199999999998" y="289.99999999999994" as="targetPoint" />
          </mxGeometry>
        </mxCell>
        <mxCell id="BICUtr6SKWms27QiwE2e-125" value="ApParam" style="swimlane;fontStyle=1;align=center;verticalAlign=top;childLayout=stackLayout;horizontal=1;startSize=26;horizontalStack=0;resizeParent=1;resizeParentMax=0;resizeLast=0;collapsible=1;marginBottom=0;whiteSpace=wrap;html=1;" vertex="1" parent="WIyWlLk6GJQsqaUBKTNV-1">
          <mxGeometry x="600" y="683" width="160" height="362" as="geometry" />
        </mxCell>
        <mxCell id="BICUtr6SKWms27QiwE2e-126" value="" style="line;strokeWidth=1;fillColor=none;align=left;verticalAlign=middle;spacingTop=-1;spacingLeft=3;spacingRight=3;rotatable=0;labelPosition=right;points=[];portConstraint=eastwest;strokeColor=inherit;" vertex="1" parent="BICUtr6SKWms27QiwE2e-125">
          <mxGeometry y="26" width="160" height="8" as="geometry" />
        </mxCell>
        <mxCell id="BICUtr6SKWms27QiwE2e-127" value="- ssid_: std::string" style="text;strokeColor=none;fillColor=none;align=left;verticalAlign=top;spacingLeft=4;spacingRight=4;overflow=hidden;rotatable=0;points=[[0,0.5],[1,0.5]];portConstraint=eastwest;whiteSpace=wrap;html=1;" vertex="1" parent="BICUtr6SKWms27QiwE2e-125">
          <mxGeometry y="34" width="160" height="26" as="geometry" />
        </mxCell>
        <mxCell id="BICUtr6SKWms27QiwE2e-131" value="- pwd_: std::string" style="text;strokeColor=none;fillColor=none;align=left;verticalAlign=top;spacingLeft=4;spacingRight=4;overflow=hidden;rotatable=0;points=[[0,0.5],[1,0.5]];portConstraint=eastwest;whiteSpace=wrap;html=1;" vertex="1" parent="BICUtr6SKWms27QiwE2e-125">
          <mxGeometry y="60" width="160" height="26" as="geometry" />
        </mxCell>
        <mxCell id="BICUtr6SKWms27QiwE2e-132" value="- channel_: uint8_t" style="text;strokeColor=none;fillColor=none;align=left;verticalAlign=top;spacingLeft=4;spacingRight=4;overflow=hidden;rotatable=0;points=[[0,0.5],[1,0.5]];portConstraint=eastwest;whiteSpace=wrap;html=1;" vertex="1" parent="BICUtr6SKWms27QiwE2e-125">
          <mxGeometry y="86" width="160" height="26" as="geometry" />
        </mxCell>
        <mxCell id="BICUtr6SKWms27QiwE2e-133" value="+ parse_req_json(const std::string &amp;amp;json): bool" style="text;strokeColor=none;fillColor=none;align=left;verticalAlign=top;spacingLeft=4;spacingRight=4;overflow=hidden;rotatable=0;points=[[0,0.5],[1,0.5]];portConstraint=eastwest;whiteSpace=wrap;html=1;" vertex="1" parent="BICUtr6SKWms27QiwE2e-125">
          <mxGeometry y="112" width="160" height="40" as="geometry" />
        </mxCell>
        <mxCell id="BICUtr6SKWms27QiwE2e-129" value="+ set_ssid(const std::string &amp;amp;ssid): void" style="text;strokeColor=none;fillColor=none;align=left;verticalAlign=top;spacingLeft=4;spacingRight=4;overflow=hidden;rotatable=0;points=[[0,0.5],[1,0.5]];portConstraint=eastwest;whiteSpace=wrap;html=1;" vertex="1" parent="BICUtr6SKWms27QiwE2e-125">
          <mxGeometry y="152" width="160" height="40" as="geometry" />
        </mxCell>
        <mxCell id="BICUtr6SKWms27QiwE2e-130" value="+ get_ssid(): std::string" style="text;strokeColor=none;fillColor=none;align=left;verticalAlign=top;spacingLeft=4;spacingRight=4;overflow=hidden;rotatable=0;points=[[0,0.5],[1,0.5]];portConstraint=eastwest;whiteSpace=wrap;html=1;" vertex="1" parent="BICUtr6SKWms27QiwE2e-125">
          <mxGeometry y="192" width="160" height="30" as="geometry" />
        </mxCell>
        <mxCell id="BICUtr6SKWms27QiwE2e-134" value="+ set_pwd(const std::string &amp;amp;pwd): void" style="text;strokeColor=none;fillColor=none;align=left;verticalAlign=top;spacingLeft=4;spacingRight=4;overflow=hidden;rotatable=0;points=[[0,0.5],[1,0.5]];portConstraint=eastwest;whiteSpace=wrap;html=1;" vertex="1" parent="BICUtr6SKWms27QiwE2e-125">
          <mxGeometry y="222" width="160" height="40" as="geometry" />
        </mxCell>
        <mxCell id="BICUtr6SKWms27QiwE2e-135" value="+ get_pwd(): std::string" style="text;strokeColor=none;fillColor=none;align=left;verticalAlign=top;spacingLeft=4;spacingRight=4;overflow=hidden;rotatable=0;points=[[0,0.5],[1,0.5]];portConstraint=eastwest;whiteSpace=wrap;html=1;" vertex="1" parent="BICUtr6SKWms27QiwE2e-125">
          <mxGeometry y="262" width="160" height="30" as="geometry" />
        </mxCell>
        <mxCell id="BICUtr6SKWms27QiwE2e-136" value="+ set_chn(const uint8_t&amp;nbsp; chn): void" style="text;strokeColor=none;fillColor=none;align=left;verticalAlign=top;spacingLeft=4;spacingRight=4;overflow=hidden;rotatable=0;points=[[0,0.5],[1,0.5]];portConstraint=eastwest;whiteSpace=wrap;html=1;" vertex="1" parent="BICUtr6SKWms27QiwE2e-125">
          <mxGeometry y="292" width="160" height="40" as="geometry" />
        </mxCell>
        <mxCell id="BICUtr6SKWms27QiwE2e-137" value="+ get_chn(): uint8_t" style="text;strokeColor=none;fillColor=none;align=left;verticalAlign=top;spacingLeft=4;spacingRight=4;overflow=hidden;rotatable=0;points=[[0,0.5],[1,0.5]];portConstraint=eastwest;whiteSpace=wrap;html=1;" vertex="1" parent="BICUtr6SKWms27QiwE2e-125">
          <mxGeometry y="332" width="160" height="30" as="geometry" />
        </mxCell>
        <mxCell id="BICUtr6SKWms27QiwE2e-138" value="WifiParam" style="swimlane;fontStyle=1;align=center;verticalAlign=top;childLayout=stackLayout;horizontal=1;startSize=26;horizontalStack=0;resizeParent=1;resizeParentMax=0;resizeLast=0;collapsible=1;marginBottom=0;whiteSpace=wrap;html=1;" vertex="1" parent="WIyWlLk6GJQsqaUBKTNV-1">
          <mxGeometry x="770" y="683" width="160" height="266" as="geometry" />
        </mxCell>
        <mxCell id="BICUtr6SKWms27QiwE2e-139" value="" style="line;strokeWidth=1;fillColor=none;align=left;verticalAlign=middle;spacingTop=-1;spacingLeft=3;spacingRight=3;rotatable=0;labelPosition=right;points=[];portConstraint=eastwest;strokeColor=inherit;" vertex="1" parent="BICUtr6SKWms27QiwE2e-138">
          <mxGeometry y="26" width="160" height="8" as="geometry" />
        </mxCell>
        <mxCell id="BICUtr6SKWms27QiwE2e-140" value="- ssid_: std::string" style="text;strokeColor=none;fillColor=none;align=left;verticalAlign=top;spacingLeft=4;spacingRight=4;overflow=hidden;rotatable=0;points=[[0,0.5],[1,0.5]];portConstraint=eastwest;whiteSpace=wrap;html=1;" vertex="1" parent="BICUtr6SKWms27QiwE2e-138">
          <mxGeometry y="34" width="160" height="26" as="geometry" />
        </mxCell>
        <mxCell id="BICUtr6SKWms27QiwE2e-141" value="- pwd_: std::string" style="text;strokeColor=none;fillColor=none;align=left;verticalAlign=top;spacingLeft=4;spacingRight=4;overflow=hidden;rotatable=0;points=[[0,0.5],[1,0.5]];portConstraint=eastwest;whiteSpace=wrap;html=1;" vertex="1" parent="BICUtr6SKWms27QiwE2e-138">
          <mxGeometry y="60" width="160" height="26" as="geometry" />
        </mxCell>
        <mxCell id="BICUtr6SKWms27QiwE2e-143" value="+ parse_req_json(const std::string &amp;amp;json): bool" style="text;strokeColor=none;fillColor=none;align=left;verticalAlign=top;spacingLeft=4;spacingRight=4;overflow=hidden;rotatable=0;points=[[0,0.5],[1,0.5]];portConstraint=eastwest;whiteSpace=wrap;html=1;" vertex="1" parent="BICUtr6SKWms27QiwE2e-138">
          <mxGeometry y="86" width="160" height="40" as="geometry" />
        </mxCell>
        <mxCell id="BICUtr6SKWms27QiwE2e-144" value="+ set_ssid(const std::string &amp;amp;ssid): void" style="text;strokeColor=none;fillColor=none;align=left;verticalAlign=top;spacingLeft=4;spacingRight=4;overflow=hidden;rotatable=0;points=[[0,0.5],[1,0.5]];portConstraint=eastwest;whiteSpace=wrap;html=1;" vertex="1" parent="BICUtr6SKWms27QiwE2e-138">
          <mxGeometry y="126" width="160" height="40" as="geometry" />
        </mxCell>
        <mxCell id="BICUtr6SKWms27QiwE2e-145" value="+ get_ssid(): std::string" style="text;strokeColor=none;fillColor=none;align=left;verticalAlign=top;spacingLeft=4;spacingRight=4;overflow=hidden;rotatable=0;points=[[0,0.5],[1,0.5]];portConstraint=eastwest;whiteSpace=wrap;html=1;" vertex="1" parent="BICUtr6SKWms27QiwE2e-138">
          <mxGeometry y="166" width="160" height="30" as="geometry" />
        </mxCell>
        <mxCell id="BICUtr6SKWms27QiwE2e-146" value="+ set_pwd(const std::string &amp;amp;pwd): void" style="text;strokeColor=none;fillColor=none;align=left;verticalAlign=top;spacingLeft=4;spacingRight=4;overflow=hidden;rotatable=0;points=[[0,0.5],[1,0.5]];portConstraint=eastwest;whiteSpace=wrap;html=1;" vertex="1" parent="BICUtr6SKWms27QiwE2e-138">
          <mxGeometry y="196" width="160" height="40" as="geometry" />
        </mxCell>
        <mxCell id="BICUtr6SKWms27QiwE2e-147" value="+ get_pwd(): std::string" style="text;strokeColor=none;fillColor=none;align=left;verticalAlign=top;spacingLeft=4;spacingRight=4;overflow=hidden;rotatable=0;points=[[0,0.5],[1,0.5]];portConstraint=eastwest;whiteSpace=wrap;html=1;" vertex="1" parent="BICUtr6SKWms27QiwE2e-138">
          <mxGeometry y="236" width="160" height="30" as="geometry" />
        </mxCell>
        <mxCell id="BICUtr6SKWms27QiwE2e-150" value="" style="endArrow=block;dashed=1;endFill=0;endSize=12;html=1;rounded=0;entryX=0.553;entryY=1.023;entryDx=0;entryDy=0;entryPerimeter=0;exitX=0.05;exitY=-0.005;exitDx=0;exitDy=0;exitPerimeter=0;" edge="1" parent="WIyWlLk6GJQsqaUBKTNV-1" source="BICUtr6SKWms27QiwE2e-125" target="BICUtr6SKWms27QiwE2e-19">
          <mxGeometry width="160" relative="1" as="geometry">
            <mxPoint x="650" y="585" as="sourcePoint" />
            <mxPoint x="270" y="290" as="targetPoint" />
          </mxGeometry>
        </mxCell>
        <mxCell id="BICUtr6SKWms27QiwE2e-151" value="" style="endArrow=block;dashed=1;endFill=0;endSize=12;html=1;rounded=0;entryX=0.788;entryY=0.989;entryDx=0;entryDy=0;entryPerimeter=0;exitX=0.096;exitY=0.003;exitDx=0;exitDy=0;exitPerimeter=0;" edge="1" parent="WIyWlLk6GJQsqaUBKTNV-1" source="BICUtr6SKWms27QiwE2e-138" target="BICUtr6SKWms27QiwE2e-19">
          <mxGeometry width="160" relative="1" as="geometry">
            <mxPoint x="760" y="585" as="sourcePoint" />
            <mxPoint x="250" y="292" as="targetPoint" />
          </mxGeometry>
        </mxCell>
        <mxCell id="BICUtr6SKWms27QiwE2e-152" value="UploadVideoPath" style="swimlane;fontStyle=1;align=center;verticalAlign=top;childLayout=stackLayout;horizontal=1;startSize=26;horizontalStack=0;resizeParent=1;resizeParentMax=0;resizeLast=0;collapsible=1;marginBottom=0;whiteSpace=wrap;html=1;" vertex="1" parent="WIyWlLk6GJQsqaUBKTNV-1">
          <mxGeometry x="940" y="683" width="160" height="380" as="geometry" />
        </mxCell>
        <mxCell id="BICUtr6SKWms27QiwE2e-153" value="" style="line;strokeWidth=1;fillColor=none;align=left;verticalAlign=middle;spacingTop=-1;spacingLeft=3;spacingRight=3;rotatable=0;labelPosition=right;points=[];portConstraint=eastwest;strokeColor=inherit;" vertex="1" parent="BICUtr6SKWms27QiwE2e-152">
          <mxGeometry y="26" width="160" height="8" as="geometry" />
        </mxCell>
        <mxCell id="BICUtr6SKWms27QiwE2e-154" value="- protocol_: std::string" style="text;strokeColor=none;fillColor=none;align=left;verticalAlign=top;spacingLeft=4;spacingRight=4;overflow=hidden;rotatable=0;points=[[0,0.5],[1,0.5]];portConstraint=eastwest;whiteSpace=wrap;html=1;" vertex="1" parent="BICUtr6SKWms27QiwE2e-152">
          <mxGeometry y="34" width="160" height="26" as="geometry" />
        </mxCell>
        <mxCell id="BICUtr6SKWms27QiwE2e-155" value="- host_: std::string" style="text;strokeColor=none;fillColor=none;align=left;verticalAlign=top;spacingLeft=4;spacingRight=4;overflow=hidden;rotatable=0;points=[[0,0.5],[1,0.5]];portConstraint=eastwest;whiteSpace=wrap;html=1;" vertex="1" parent="BICUtr6SKWms27QiwE2e-152">
          <mxGeometry y="60" width="160" height="26" as="geometry" />
        </mxCell>
        <mxCell id="BICUtr6SKWms27QiwE2e-161" value="- port_: uint16_t" style="text;strokeColor=none;fillColor=none;align=left;verticalAlign=top;spacingLeft=4;spacingRight=4;overflow=hidden;rotatable=0;points=[[0,0.5],[1,0.5]];portConstraint=eastwest;whiteSpace=wrap;html=1;" vertex="1" parent="BICUtr6SKWms27QiwE2e-152">
          <mxGeometry y="86" width="160" height="26" as="geometry" />
        </mxCell>
        <mxCell id="BICUtr6SKWms27QiwE2e-162" value="- path_: std::string" style="text;strokeColor=none;fillColor=none;align=left;verticalAlign=top;spacingLeft=4;spacingRight=4;overflow=hidden;rotatable=0;points=[[0,0.5],[1,0.5]];portConstraint=eastwest;whiteSpace=wrap;html=1;" vertex="1" parent="BICUtr6SKWms27QiwE2e-152">
          <mxGeometry y="112" width="160" height="26" as="geometry" />
        </mxCell>
        <mxCell id="BICUtr6SKWms27QiwE2e-156" value="+ parse_req_json(const std::string &amp;amp;json): bool" style="text;strokeColor=none;fillColor=none;align=left;verticalAlign=top;spacingLeft=4;spacingRight=4;overflow=hidden;rotatable=0;points=[[0,0.5],[1,0.5]];portConstraint=eastwest;whiteSpace=wrap;html=1;" vertex="1" parent="BICUtr6SKWms27QiwE2e-152">
          <mxGeometry y="138" width="160" height="40" as="geometry" />
        </mxCell>
        <mxCell id="BICUtr6SKWms27QiwE2e-157" value="+ set_param(&lt;span style=&quot;background-color: initial;&quot;&gt;const std::string &amp;amp;protocol, const std::string &amp;amp;host, const uint16_t port,&amp;nbsp;&lt;/span&gt;&lt;span style=&quot;background-color: initial;&quot;&gt;const std::string &amp;amp;path&lt;/span&gt;): void" style="text;strokeColor=none;fillColor=none;align=left;verticalAlign=top;spacingLeft=4;spacingRight=4;overflow=hidden;rotatable=0;points=[[0,0.5],[1,0.5]];portConstraint=eastwest;whiteSpace=wrap;html=1;" vertex="1" parent="BICUtr6SKWms27QiwE2e-152">
          <mxGeometry y="178" width="160" height="82" as="geometry" />
        </mxCell>
        <mxCell id="BICUtr6SKWms27QiwE2e-158" value="+ get_protocol(): std::string" style="text;strokeColor=none;fillColor=none;align=left;verticalAlign=top;spacingLeft=4;spacingRight=4;overflow=hidden;rotatable=0;points=[[0,0.5],[1,0.5]];portConstraint=eastwest;whiteSpace=wrap;html=1;" vertex="1" parent="BICUtr6SKWms27QiwE2e-152">
          <mxGeometry y="260" width="160" height="30" as="geometry" />
        </mxCell>
        <mxCell id="BICUtr6SKWms27QiwE2e-159" value="+ get_host(): std::string" style="text;strokeColor=none;fillColor=none;align=left;verticalAlign=top;spacingLeft=4;spacingRight=4;overflow=hidden;rotatable=0;points=[[0,0.5],[1,0.5]];portConstraint=eastwest;whiteSpace=wrap;html=1;" vertex="1" parent="BICUtr6SKWms27QiwE2e-152">
          <mxGeometry y="290" width="160" height="30" as="geometry" />
        </mxCell>
        <mxCell id="BICUtr6SKWms27QiwE2e-160" value="+ get_port(): uint16_t" style="text;strokeColor=none;fillColor=none;align=left;verticalAlign=top;spacingLeft=4;spacingRight=4;overflow=hidden;rotatable=0;points=[[0,0.5],[1,0.5]];portConstraint=eastwest;whiteSpace=wrap;html=1;" vertex="1" parent="BICUtr6SKWms27QiwE2e-152">
          <mxGeometry y="320" width="160" height="30" as="geometry" />
        </mxCell>
        <mxCell id="BICUtr6SKWms27QiwE2e-163" value="+ get_path(): std::string" style="text;strokeColor=none;fillColor=none;align=left;verticalAlign=top;spacingLeft=4;spacingRight=4;overflow=hidden;rotatable=0;points=[[0,0.5],[1,0.5]];portConstraint=eastwest;whiteSpace=wrap;html=1;" vertex="1" parent="BICUtr6SKWms27QiwE2e-152">
          <mxGeometry y="350" width="160" height="30" as="geometry" />
        </mxCell>
        <mxCell id="BICUtr6SKWms27QiwE2e-164" value="" style="endArrow=block;dashed=1;endFill=0;endSize=12;html=1;rounded=0;exitX=0.029;exitY=-0.003;exitDx=0;exitDy=0;exitPerimeter=0;entryX=0.998;entryY=1.007;entryDx=0;entryDy=0;entryPerimeter=0;" edge="1" parent="WIyWlLk6GJQsqaUBKTNV-1" source="BICUtr6SKWms27QiwE2e-152" target="BICUtr6SKWms27QiwE2e-19">
          <mxGeometry width="160" relative="1" as="geometry">
            <mxPoint x="1030" y="570" as="sourcePoint" />
            <mxPoint x="1130" y="510" as="targetPoint" />
          </mxGeometry>
        </mxCell>
        <mxCell id="BICUtr6SKWms27QiwE2e-165" value="ConfigInfo" style="swimlane;fontStyle=1;align=center;verticalAlign=top;childLayout=stackLayout;horizontal=1;startSize=26;horizontalStack=0;resizeParent=1;resizeParentMax=0;resizeLast=0;collapsible=1;marginBottom=0;whiteSpace=wrap;html=1;" vertex="1" parent="WIyWlLk6GJQsqaUBKTNV-1">
          <mxGeometry x="1110" y="683" width="160" height="74" as="geometry" />
        </mxCell>
        <mxCell id="BICUtr6SKWms27QiwE2e-166" value="" style="line;strokeWidth=1;fillColor=none;align=left;verticalAlign=middle;spacingTop=-1;spacingLeft=3;spacingRight=3;rotatable=0;labelPosition=right;points=[];portConstraint=eastwest;strokeColor=inherit;" vertex="1" parent="BICUtr6SKWms27QiwE2e-165">
          <mxGeometry y="26" width="160" height="8" as="geometry" />
        </mxCell>
        <mxCell id="BICUtr6SKWms27QiwE2e-168" value="+ gen_res_json(std::string config_file): std::string" style="text;strokeColor=none;fillColor=none;align=left;verticalAlign=top;spacingLeft=4;spacingRight=4;overflow=hidden;rotatable=0;points=[[0,0.5],[1,0.5]];portConstraint=eastwest;whiteSpace=wrap;html=1;" vertex="1" parent="BICUtr6SKWms27QiwE2e-165">
          <mxGeometry y="34" width="160" height="40" as="geometry" />
        </mxCell>
        <mxCell id="BICUtr6SKWms27QiwE2e-171" value="" style="endArrow=block;dashed=1;endFill=0;endSize=12;html=1;rounded=0;entryX=1;entryY=0.5;entryDx=0;entryDy=0;" edge="1" parent="WIyWlLk6GJQsqaUBKTNV-1" target="BICUtr6SKWms27QiwE2e-19">
          <mxGeometry width="160" relative="1" as="geometry">
            <mxPoint x="1120" y="680" as="sourcePoint" />
            <mxPoint x="300" y="280" as="targetPoint" />
          </mxGeometry>
        </mxCell>
      </root>
    </mxGraphModel>
  </diagram>
</mxfile>
